<?xml version="1.0" encoding="utf-8"?>
<!-- Generator: Adobe Illustrator 25.4.1, SVG Export Plug-In . SVG Version: 6.00 Build 0)  -->
<svg version="1.1" xmlns="http://www.w3.org/2000/svg" xmlns:xlink="http://www.w3.org/1999/xlink" x="0px" y="0px"
	 viewBox="0 0 1343.57 1350.03" style="enable-background:new 0 0 1343.57 1350.03;" xml:space="preserve">
<style type="text/css">
	.st0{fill:#D39D79;}
	.st1{fill:url(#SVGID_1_);}
	.st2{fill:url(#SVGID_00000168108666799306161390000005214295640650212541_);}
	.st3{stroke:#000000;stroke-miterlimit:10;}
	.st4{fill:none;stroke:#000000;stroke-miterlimit:10;}
	.st5{fill:#F8CBA8;stroke:#000000;stroke-miterlimit:10;}
	.st6{fill:#683E1E;stroke:#000000;stroke-miterlimit:10;}
	.st7{fill:#F99B9B;}
	.st8{fill:#553900;}
	.st9{fill:none;}
	.st10{fill:#150B00;}
	.st11{fill:none;stroke:#553900;stroke-miterlimit:10;}
	.st12{fill:#F7F6F5;}
	.st13{fill:#EFE6E1;}
	.st14{fill:#F4C0AC;}
	.st15{fill:#89564E;}
	.st16{fill:none;stroke:#000000;stroke-width:2;stroke-miterlimit:10;}
	.st17{fill:none;stroke:#000000;stroke-width:3;stroke-miterlimit:10;}
	.st18{fill:url(#SVGID_00000082331153619314440480000000185584539104564390_);}
	.st19{fill:url(#SVGID_00000167382940436403590530000012359302894382457528_);}
	.st20{fill:#F9F6F4;stroke:#1D1D1B;stroke-miterlimit:10;}
	.st21{fill:url(#SVGID_00000142854900546207263540000010979261812709089664_);}
	.st22{fill:url(#SVGID_00000180341647058227972560000012193590665268136346_);}
	.st23{fill:#FFFFFF;stroke:#000000;stroke-miterlimit:10;}
	.st24{fill:url(#SVGID_00000026881669078508329980000002487721446567116424_);}
	.st25{fill:url(#SVGID_00000015312480089088791640000010443787239561028490_);}
	.st26{stroke:#1D1D1B;stroke-miterlimit:10;}
	.st27{fill:none;stroke:#1D1D1B;stroke-miterlimit:10;}
	.st28{fill:#020202;stroke:#1D1D1B;stroke-miterlimit:10;}
	.st29{fill:#FFFFFF;}
	.st30{fill:#F9F6F4;}
	.st31{fill:#F48787;}
	.st32{fill:#F7C4C9;stroke:#1D1D1B;stroke-miterlimit:10;}
	.st33{fill:#734400;}
	.st34{fill:#683E1E;stroke:#000000;stroke-width:2;stroke-miterlimit:10;}
	.st35{fill:#D8AA82;}
	.st36{fill:url(#SVGID_00000109741106546045138240000006793041763803266225_);}
	.st37{fill:url(#SVGID_00000011714726703685324010000017872513216157414541_);}
	.st38{fill:#683E1E;}
	.st39{fill:url(#SVGID_00000170962777000557673100000008884232139949890432_);}
</style>
<g id="Lager_3">
</g>
<g id="Lager_1">
	<path class="st0" d="M448.69,458.97"/>
	<radialGradient id="SVGID_1_" cx="547.6329" cy="686.7794" r="20.966" gradientUnits="userSpaceOnUse">
		<stop  offset="0" style="stop-color:#9ED8E5"/>
		<stop  offset="0" style="stop-color:#99D0E0"/>
		<stop  offset="1" style="stop-color:#00486A"/>
	</radialGradient>
	<ellipse class="st1" cx="547.63" cy="686.78" rx="22.13" ry="19.74"/>
	
		<radialGradient id="SVGID_00000073713393802739923150000004011510563697704601_" cx="764.4924" cy="663.1148" r="20.966" gradientUnits="userSpaceOnUse">
		<stop  offset="0" style="stop-color:#9ED8E5"/>
		<stop  offset="9.879299e-03" style="stop-color:#99D0E0"/>
		<stop  offset="1" style="stop-color:#00486A"/>
	</radialGradient>
	
		<ellipse style="fill:url(#SVGID_00000073713393802739923150000004011510563697704601_);" cx="764.49" cy="663.11" rx="22.13" ry="19.74"/>
	<path d="M593.68,678.8c0,0-24.41-39.22-99.52,7.98C494.15,686.78,567.55,635.24,593.68,678.8z"/>
	<path d="M559.57,667.04c0,0-21.87-8.63-21.22-14.33v10.4c0,0-13.13-3.05-12.84-10.4v12.21c0,0-10.87-3.97-11.55-12.21
		c0,0-4.09,7.51,2.73,14.33c6.82,6.82-14.08-7.17-14.08-7.17s1.29,6.84,9.3,9.6c8.01,2.75-8.19,2.39-17.75-3.77
		c0,0,5.16,10.79,8.45,12.47c3.29,1.69-13.23,1.85-18.01-2.93c-4.78-4.78,13.66,8.83,13.66,8.83l-21.17-5.28
		c0,0,10.93,12.58,17.07,10.66c6.15-1.92-11.61,6.43-21.17-2.19c-9.56-8.62,12.55,18.32,26.63,5.93
		C499.61,693.21,530.13,661.58,559.57,667.04z"/>
	<path d="M575.41,629.35c-12.56,0.32-25.11,0.64-37.67,0.95c-5.09,0.13-10.43,0.2-14.96-2.14"/>
	<path class="st3" d="M573.34,639.32c-14.4,0.47-28.8,0.93-43.2,1.4c-3.28,0.11-6.57,0.21-9.83-0.15c-3.84-0.43-7.61-1.51-11.1-3.19
		"/>
	<path class="st4" d="M572,630.8c-16.84,0.39-33.7,0.14-50.52-0.74"/>
	<path class="st5" d="M690.89,369.62c0,0,104.32,50.19,198.58,159.93c0,0-15.48,74.68,0,146.38c0,0,5.63,28.08,11.26,74.51
		l8.44,21.1l-16.88,12.66l-14.07,77.38c0,0-54.14,137.88-128.37,195.57c0,0-26.4,26.73-88.3,7.03c0,0-11.14,1.41-69.59-61.91
		c0,0-99.62-80.2-113.5-123.81c-13.88-43.62-43.43-136.25-46.24-167.31c-2.81-31.07-2.81-25.44-2.81-31.07
		c0-5.63-23.92-84.42-19.7-167.43c0,0,10.84-109.41,147.07-130.51c0,0,17.54,2.48,72.41,22.18
		C629.18,404.33,651.49,363.99,690.89,369.62z"/>
	<path class="st6" d="M1016.74,1007.44c0,0-17.22-142.4-38.16-165.47c0,0-39.23,66.98-26.56,114.82
		C952.02,956.79,988.6,1000.4,1016.74,1007.44z"/>
	<path class="st7" d="M778.01,855.83c-26.85,10.67-57.63,5.84-85.16,14.6c-5.99,1.91-11.89,4.47-18.17,4.79
		c-5.26,0.27-10.46-1.06-15.65-1.94c-26.97-4.55-54.34,3.06-80.63,10.61c29.55-1.39,68.78,18.35,104.83,10.7
		c18.08-3.84,26.46-10.86,41.85-16.67C743.95,870.8,759.76,864.48,778.01,855.83z"/>
	<g>
		<path class="st8" d="M653.17,777.73c0.95,4.94,1.77,9.91,2.33,14.94c0.5,5.02,0.7,10.12,0.11,15.2c-0.27,2.53-0.74,5.07-1.37,7.52
			c-0.6,2.45-1.25,4.86-1.56,7.27c-0.33,2.4-0.32,4.83,0.43,7.02c0.7,2.2,2.2,4.11,4.01,5.64c3.65,3.08,8.48,4.76,13.28,4.77
			c2.4,0.01,4.8-0.43,7.12-1.21c2.32-0.76,4.56-1.83,6.76-2.99c4.4-2.31,8.7-5.11,13.55-6.78c2.41-0.83,4.93-1.4,7.48-1.51
			c1.27-0.06,2.55,0.04,3.8,0.24c1.25,0.24,2.45,0.65,3.6,1.17c-2.37-0.88-4.9-1.13-7.37-0.88c-2.47,0.26-4.88,0.95-7.17,1.9
			c-4.63,1.83-8.72,4.74-13.15,7.23c-2.21,1.25-4.49,2.43-6.95,3.28c-2.43,0.87-5.04,1.4-7.67,1.44
			c-5.25,0.05-10.51-1.75-14.58-5.14c-2-1.71-3.74-3.93-4.57-6.54c-0.86-2.59-0.85-5.35-0.45-7.9c0.39-2.57,1.1-5.02,1.74-7.44
			c0.65-2.42,1.17-4.82,1.52-7.28C655.44,797.81,654.24,787.71,653.17,777.73z"/>
	</g>
	<g>
		<path class="st8" d="M729.59,792.13c1.21,2.94,2.65,5.7,3.96,8.59c1.32,2.87,2.5,5.91,3,9.18c0.46,3.33-0.07,6.76-1.63,9.71
			c-0.77,1.47-1.83,2.81-3.16,3.82c-1.33,0.99-2.93,1.62-4.53,1.64c3.1-0.91,5.17-3.4,6.28-6.13c0.55-1.38,0.95-2.84,1.1-4.32
			c0.18-1.48,0.19-2.98-0.05-4.43c-0.42-2.99-1.45-5.92-2.47-8.89C731.08,798.34,730,795.29,729.59,792.13z"/>
	</g>
	<path class="st9" d="M622.2,834.43c7.3-4.79,18.49-1.74,22.36,6.08"/>
	<g>
		<path class="st10" d="M624.57,830.91c1.06,0.32,2.06,0.12,2.97-0.29c0.92-0.4,1.77-0.99,2.69-1.55c0.91-0.58,1.89-1.12,3.04-1.5
			c1.13-0.38,2.54-0.4,3.74,0.05c2.4,0.96,3.77,2.81,5.16,4.36c0.7,0.78,1.36,1.57,2.16,2.15c0.77,0.61,1.75,0.94,2.84,0.79
			l-0.77,0.32c-0.27,0.06-0.56,0.08-0.85,0.12c-0.28-0.02-0.58-0.06-0.87-0.1c-0.27-0.09-0.56-0.17-0.84-0.27
			c-1.07-0.47-1.96-1.19-2.78-1.9c-1.64-1.4-3.09-3.01-4.75-3.59c-1.58-0.68-3.43,0.09-5.37,0.95c-0.97,0.43-2,0.88-3.13,1.1
			C626.7,831.78,625.41,831.64,624.57,830.91z"/>
	</g>
	<path class="st11" d="M627.05,832.48c4.95-1.19,10-2.39,15.07-1.94c5.07,0.46,10.24,2.88,12.68,7.34"/>
	<path class="st12" d="M722.15,886.48c-9.83,4.93-12.93,17.71-8.75,27.9c2.28,5.56-2.29,7.32,6.17,8.05
		c4.86,0.42,10.41-4.52,12.47-8.46c3.71-7.1,2.53-15.83-0.35-23.3c-0.79-2.06-1.91-4.27-3.99-5.03
		C725.89,884.96,723.87,885.61,722.15,886.48z"/>
	<path class="st12" d="M686.95,912.97c-0.52-5.18-0.93-10.85,2.01-15.15c3.48-5.08,11.51-6.24,16.27-2.33
		c4.3,3.53,5.35,9.59,5.93,15.13c0.42,4.1,0.75,8.21,0.97,12.33c0.06,1.19,0.1,2.46-0.51,3.48c-0.52,0.87-1.45,1.42-2.34,1.9
		c-3.61,1.93-7.5,3.35-11.5,4.19c-3.12,0.66-6.8,0.82-9.05-1.43c-0.99-0.99-1.55-2.31-2.05-3.62c-1.85-4.85-3.1-9.92-3.71-15.07
		c-0.22-1.86-0.36-3.73-0.15-5.59c0.7-6.2,5.65-11.69,11.75-13.03"/>
	<path class="st12" d="M749.34,869.66c-4.28,5.78-2.5,11.79-2.5,18.32c0,1.62-0.94,5.99-0.14,7.34c0.5,0.85,3.96,4.27,5.11,2.33
		c2.72-4.58,8.37-7.78,8.6-13.1c0.07-1.58-0.39-3.14-0.57-4.71c-0.28-2.36,0.05-4.76-0.29-7.11s-1.58-4.81-3.82-5.58
		C753.4,866.37,750.79,867.7,749.34,869.66z"/>
	<path class="st12" d="M733.25,891.07c0.04-3.27,0.99-6.52,2.72-9.3c0.9-1.46,2.07-2.83,3.64-3.54c1.56-0.7,3.59-0.59,4.8,0.62
		c1.07,1.07,1.3,2.7,1.47,4.2c0.42,3.7,0.85,7.41,1.27,11.11c0.4,3.53,0.79,7.24-0.54,10.53c-1.33,3.3-4.98,5.95-8.37,4.9
		c-3.46-1.08-4.88-5.16-5.42-8.74c-0.62-4.17-0.72-8.41-0.28-12.6"/>
	<path class="st12" d="M682.53,908.91c0.56,5.19,1.12,10.38,1.68,15.58c0.22,2.03,0.37,4.31-0.92,5.9c-0.97,1.2-2.55,1.71-4.05,2.1
		c-3.51,0.92-7.1,1.54-10.71,1.84c-14.08,1.18-20.62-17.66-14.46-28.97C660.45,893.65,680.96,894.39,682.53,908.91z"/>
	<path class="st12" d="M630.63,918.02c-0.31-4.96-0.58-10.12,1.26-14.74s6.48-8.52,11.4-7.85c3.81,0.52,6.87,3.66,8.32,7.23
		c1.45,3.57,1.55,7.52,1.46,11.37c-0.09,3.7-0.48,7.74-3.07,10.39c-2.8,2.85-7.21,3.14-11.2,3.26c-1.04,0.03-2.13,0.05-3.07-0.39
		c-3.43-1.63-2.56-7.94-6.18-9.09c1.28,4.96,5.88,8.87,10.97,9.34c5.1,0.47,10.34-2.54,12.5-7.18"/>
	<path class="st12" d="M620.25,919.65c-1.81-7.26-3.51-14.73-2.68-22.17c0.11-0.95,0.3-1.99,1.03-2.61c0.56-0.47,1.34-0.61,2.07-0.6
		c3.54,0.03,6.56,2.87,7.92,6.13c1.36,3.27,1.39,6.91,1.4,10.45c0.01,2.18,0.02,4.36,0.02,6.54c0.01,1.66-0.04,3.46-1.09,4.75
		c-1.1,1.35-2.98,1.72-4.7,2c-1.21,0.2-2.58,0.36-3.55-0.39c-0.62-0.48-0.95-1.25-1.22-1.99c-1.79-4.94-2.36-10.32-1.65-15.53"/>
	<path class="st12" d="M606.37,889.74c3.46,1.18,6.18,4.03,7.8,7.3c1.63,3.27,2.26,6.96,2.51,10.6c0.14,2.03,0.15,4.17-0.81,5.97
		c-0.96,1.79-3.18,3.07-5.07,2.3c-1.38-0.56-2.19-1.98-2.81-3.33c-3.44-7.55-4.32-16.24-2.46-24.32c1.47,0.06,2.94,0.12,4.41,0.19
		c3.5,4.16,5.48,9.58,5.48,15.01"/>
	<path class="st12" d="M593.61,882.66c0.39,5.81,3.28,11.4,7.78,15.09c0.46,0.38,0.98,0.75,1.57,0.76c1.5,0.04,2.04-1.95,2.09-3.44
		c0.07-1.98,0.14-3.96,0.22-5.95c0.03-0.81,0.05-1.66-0.32-2.38c-0.38-0.74-1.11-1.23-1.83-1.65c-2.97-1.73-6.31-2.84-9.72-3.25"/>
	<path class="st13" d="M648.64,937.71c4.89-4.87,13.46-5.41,18.92-1.18c6.11-3.61,13.8-4.42,20.53-2.17
		c6.19-3.35,13.69-4.2,20.48-2.32c1.67-6.76,9.99-10.97,16.43-8.3c0.43-3.65,4.79-6.23,8.2-4.87c-8.86,9.22-18.63,17.99-30.45,22.87
		c-18.25,7.55-39.39,4.89-57.71-2.49c-2.94-1.18-5.86-2.69-6.88-5.82C641.45,931.51,646.54,934.82,648.64,937.71z"/>
	<path class="st14" d="M613.86,894.58c1.14,4.01,2.28,8.02,3.42,12.04c-1.31-3.81-2.12-8.78,1.36-11.11
		c2.15-1.44,5.03-1.13,7.05,0.5c3.81,3.05,4.23,7.84,4.55,12.31c0.52-5.94,4.88-11.74,10.78-12.61c5.9-0.86,12.25,4.66,11.12,10.52
		c2.87-5.14,8.37-8.72,14.23-9.27c5.86-0.54,11.93,1.98,15.68,6.51c2.3-5.33,7.6-9.23,13.37-9.84c5.77-0.61,11.77,2.11,15.13,6.84
		c1.57-4.69,4.26-9.01,7.77-12.5c2.26-2.25,5.67-4.25,8.48-2.74c2.36,1.26,3.8,4.76,6.44,4.32c-0.07-3.26,0.62-6.71,2.83-9.1
		s6.26-3.25,8.79-1.21c-0.54-5.87,4.46-11.68,10.35-12.01c2.2,2.16,3.95,4.79,5.08,7.66c2.91-0.44,5.07-3.11,5.84-5.94
		c0.77-2.84,0.42-5.84,0.07-8.76c-21.27,8.85-42.54,17.7-63.81,26.55c-6.54,2.72-13.12,5.45-20.05,6.92
		c-14.35,3.03-29.21,0.46-43.65-2.12c-7.24-1.29-14.48-2.59-21.72-3.88c-3.25-0.58-11.98-4.3-11.79,1.45
		C608.94,886,613.86,890.2,613.86,894.58z"/>
	<path class="st15" d="M590.03,895.01c3.47,1.32,5.97,4.33,8.3,7.22c2.05,2.54,4.09,5.07,6.14,7.61c0.21-2.23,0.1-4.49-0.33-6.7
		c-0.17-0.89-0.45-1.85-1.21-2.35c-0.51-0.34-1.15-0.41-1.73-0.62c-2.3-0.84-3.08-3.62-3.9-5.93c-1.07-3.03-2.75-5.86-4.89-8.25
		c-3.17-0.17-12.03-2.36-12.9,2.35C578.67,892.87,587.42,894.02,590.03,895.01z"/>
	<path class="st15" d="M766.5,859.58c3.91-2.04,8.13-3.47,12.47-4.25c1.49,3.83-1.37,7.87-4.04,10.99
		c-4.81,5.62-9.61,11.24-14.42,16.86c-0.04-1.96-0.09-3.92-0.13-5.88c-0.01-0.49-0.02-0.99,0.2-1.43c0.24-0.5,0.73-0.82,1.16-1.16
		c3.98-3.14,4.56-8.84,4.83-13.9c4.31-1.35,8.35-3.58,11.77-6.53"/>
	<circle class="st12" cx="641.55" cy="917.25" r="11.55"/>
	<path class="st16" d="M406.93,617.24c-0.63,30.35-10.51,59.65-20.28,88.39c-6.04,17.77-12.09,35.55-18.13,53.32
		c-2.92,8.58-5.9,17.28-11.05,24.72c-10.29,14.87-28.4,23.53-36.7,39.6"/>
	<path class="st16" d="M415.41,788.92c-13.5,17.82-19.69,40.25-21.93,62.49c-2.24,22.25-0.82,44.67-0.64,67.03
		c0.05,5.8-0.41,12.47-5.07,15.93"/>
	<path class="st4" d="M436.6,874.41c-4.44,37.77,13.74,74.05,22.11,111.15c5.55,24.6,6.8,50.16,3.68,75.18"/>
	<path class="st6" d="M626.61,330.73"/>
	<path class="st6" d="M615.14,407.31"/>
	<path class="st4" d="M399.04,520.08c-12.46-1.57-26.43,1.07-34.46,10.72c-3.49,4.19-5.58,9.36-7.36,14.51
		c-2.85,8.23-5.06,16.68-6.61,25.25"/>
	<path class="st17" d="M627.47,346.99c44.42-8.72,91.07-14.73,134.41-1.66c43.04,12.98,78.29,43.37,112.14,72.95
		c11.41,9.98,22.82,19.95,34.23,29.93"/>
	<path class="st4" d="M879.52,531.6c11.91,5.42,24.41,9.53,37.22,12.24"/>
	<path class="st4" d="M624.11,345.8c1.86-8.28,3.71-16.55,5.57-24.83c3.57-15.95,7.24-32.15,15.13-46.46c1.31-2.38,3.3-5,6-4.79"/>
	<g id="Lager_2">
		
			<radialGradient id="SVGID_00000128451095092569122900000008454762148764777625_" cx="549.6589" cy="734.7997" r="60.7504" gradientTransform="matrix(1.0987 0 0 1.2665 -47.6751 -181.4241)" gradientUnits="userSpaceOnUse">
			<stop  offset="0.3545" style="stop-color:#F2D1BB"/>
			<stop  offset="0.6689" style="stop-color:#F3D0B9"/>
			<stop  offset="0.775" style="stop-color:#F5CEB1"/>
			<stop  offset="0.9201" style="stop-color:#F7CCAC"/>
			<stop  offset="0.9279" style="stop-color:#F7CCAB"/>
			<stop  offset="0.9843" style="stop-color:#F8CBA8"/>
			<stop  offset="0.9853" style="stop-color:#F8CBA8"/>
			<stop  offset="0.9919" style="stop-color:#F8CBA8"/>
		</radialGradient>
		<path style="fill:url(#SVGID_00000128451095092569122900000008454762148764777625_);" d="M612.2,695.53c0,0,34.02-1.81,6.81,33.78
			c0,0-16.94,72.36-47.42,86.59c0,0-22.95,9.49-53.3-14.23c0,0-37.01-29.8-35.3-101.09C482.99,700.57,532.43,659.39,612.2,695.53z"
			/>
		
			<radialGradient id="SVGID_00000155135636980087968700000017373652800353580470_" cx="770.7339" cy="706.8624" r="59.3539" gradientTransform="matrix(1.1769 0 0 1.3446 -124.9031 -225.0984)" gradientUnits="userSpaceOnUse">
			<stop  offset="0.6231" style="stop-color:#F2D1BB"/>
			<stop  offset="0.8168" style="stop-color:#F6CDAD"/>
			<stop  offset="0.9843" style="stop-color:#F8CBA8"/>
			<stop  offset="0.9853" style="stop-color:#F8CBA8"/>
			<stop  offset="0.9919" style="stop-color:#F8CBA8"/>
			<stop  offset="0.9929" style="stop-color:#F8CBA9"/>
			<stop  offset="1" style="stop-color:#F7CCAC"/>
		</radialGradient>
		<path style="fill:url(#SVGID_00000155135636980087968700000017373652800353580470_);" d="M712.66,691.86c0,0-14.46,8.19,0,33.14
			c14.46,24.95,14.46,24.95,14.46,24.95s6.57,12.07,19.02,29.02s45.02,22.75,66.96,15.73c21.94-7.02,42.48-68.56,42.48-68.56
			s5.51-53.16,0-60.38s-30.58-12.61-30.58-12.61L712.66,691.86z"/>
		<path class="st20" d="M717.67,685.77l6.75-13.5c0,0,9-14.06,22.5-21.94c0,0,12.94-7.24,33.19-5.03c0,0,10.69-0.04,26.44,11.21
			c0,0-0.56,9.56-15.19,21.38c0,0-6.19,4.5-18,7.87c0,0-15.75,1.69-28.69,0c-12.94-1.69-12.94-1.69-12.94-1.69
			S731.17,686.89,717.67,685.77z"/>
		<path class="st20" d="M601.29,695.71c0,0-8.35-10.87-21.71-19.46c-0.93-0.6-1.89-1.19-2.87-1.76
			c-18.97-11.08-46.67-16.32-74.91,16.67c0,0,27.29,33.54,76.18,7.39c0,0,4.88,0.7,11.37,0.01
			C593.02,698.18,597.19,697.36,601.29,695.71z"/>
		
			<radialGradient id="SVGID_00000071557494783707349510000007290916626786635401_" cx="547.6329" cy="687.2753" r="20.966" gradientUnits="userSpaceOnUse">
			<stop  offset="0" style="stop-color:#9ED8E5"/>
			<stop  offset="0" style="stop-color:#99D0E0"/>
			<stop  offset="1" style="stop-color:#00486A"/>
		</radialGradient>
		
			<ellipse style="fill:url(#SVGID_00000071557494783707349510000007290916626786635401_);" cx="547.63" cy="687.28" rx="22.13" ry="19.74"/>
		
			<radialGradient id="SVGID_00000150788022658571764530000015934735873635550851_" cx="764.4924" cy="663.1148" r="20.966" gradientUnits="userSpaceOnUse">
			<stop  offset="0" style="stop-color:#9ED8E5"/>
			<stop  offset="9.879299e-03" style="stop-color:#99D0E0"/>
			<stop  offset="1" style="stop-color:#00486A"/>
		</radialGradient>
		
			<ellipse style="fill:url(#SVGID_00000150788022658571764530000015934735873635550851_);" cx="764.49" cy="663.11" rx="22.13" ry="19.74"/>
		<path class="st23" d="M448.69,662.47"/>
		
			<linearGradient id="SVGID_00000017500794622749800510000009131751183070240395_" gradientUnits="userSpaceOnUse" x1="448.686" y1="645.3051" x2="593.6757" y2="645.3051">
			<stop  offset="0.6446" style="stop-color:#493015"/>
			<stop  offset="1" style="stop-color:#D39D79"/>
		</linearGradient>
		<path style="fill:url(#SVGID_00000017500794622749800510000009131751183070240395_);" d="M591.69,647.47c0,0-25,3-49,0s-24-3-24-3
			h-22l-28,12l-20,13l16-25l14-11l41.5-11c0,0,50.5-3,60.5,0s10,3,10,3S596.69,638.47,591.69,647.47z"/>
		
			<linearGradient id="SVGID_00000116210699959277246420000006179470619055114162_" gradientUnits="userSpaceOnUse" x1="706.9083" y1="614.9717" x2="848.686" y2="614.9717">
			<stop  offset="0" style="stop-color:#D39D79"/>
			<stop  offset="0.3203" style="stop-color:#493015"/>
		</linearGradient>
		<path style="fill:url(#SVGID_00000116210699959277246420000006179470619055114162_);" d="M708.69,635.47c0,0,34-2,48-7
			s32-13,32-13s-5-5,35-5l25,17v-6.33c0,0-24-23.67-42-26.67c0,0-16,3-47,8s-46,7-46,7l-5,2
			C708.69,611.47,704.69,612.47,708.69,635.47z"/>
		<path class="st26" d="M818.36,653.14l-7.87-5.06c-37.12-15.19-56.25-7.88-56.25-7.88c-24.75,3.94-33.75,22.27-33.75,22.27
			S753.95,619.67,818.36,653.14z"/>
		<path class="st27" d="M773.92,644.88c14.84,5.8,12.94,17.59,12.94,17.59c-3.12,21.14-21.94,18.8-21.94,18.8
			c-32.62,0.56-20.77-29.19-20.77-29.19"/>
		<path class="st28" d="M809.02,656.52l7.65-21.05c0.28,11.3-15.53,17.49-15.53,17.49l-3.17-1.81
			c16.46-17.46,10.54-19.39,10.54-19.39c0,5.62-16.15,16.7-16.15,16.7c10.85-17.89,4.9-18.67,4.9-18.67c0.56,7.59-9.5,17-9.5,17
			l-4.57-1.92c11.81-14.45,5.91-16.41,5.91-16.41c1.12,7.39-12.37,16.41-12.37,16.41c2.25-5.73,2.81-20.43,2.81-15.37
			s-10.12,15.37-10.12,15.37c9.28-14.73,2.25-15.37,2.25-15.37c2.81,7.88-6.82,15.37-6.82,15.37c4.99-2.91-0.36-13.4-0.36-13.4
			c1.54,3.38-2.39,14.2-2.39,14.2l-8.91,2.1c3.17-1.13,3.29-14.7,3.29-14.7c1.24,4.13-6.46,15.84-6.46,15.84
			c3.1-1.41-0.19-18.54-0.01-15.47c0.19,3.07-3.09,16.88-3.09,16.88c1.12-6.47-3.66-14.86-3.66-14.86
			c3.38,1.73-1.22,16.83-1.22,16.83s30.18-15.26,64.5,4.22"/>
		<path class="st28" d="M731.73,684.08c-5.92-1.74-7.31-11.81-7.31-11.81"/>
		<path class="st28" d="M754.14,663.67c0,0,5.36-12.76,14.8-2.24c0,0,4.41,6.35-3.3,11.14
			C765.65,672.57,769.51,662.62,754.14,663.67z"/>
		<path class="st27" d="M577.51,675.25c15.21,11.19,13.21,17.81,13.21,17.81s1.71,3.98-11.94,6.25"/>
		<path class="st27" d="M542.86,667.14c0,0-18.12,2.21-17.51,20.88c0,0,0.75,16.38,19.9,16.97c19.15,0.58,26.15-12.33,24.45-16.97
			c-1.71-4.64,2.27-17.12-17.34-21.11"/>
		<circle class="st29" cx="774.05" cy="661.16" r="3.94"/>
		<circle class="st30" cx="559.57" cy="685.4" r="4.06"/>
		<circle class="st29" cx="754.05" cy="665.32" r="4.16"/>
		<circle class="st30" cx="538.34" cy="689.31" r="3.9"/>
		<g>
			<path class="st8" d="M740.12,785.56c8.69-1.37,17.98,1.02,25.19,6.36c1.8,1.34,3.5,2.82,4.99,4.52c1.51,1.67,2.82,3.48,4.08,5.3
				c2.5,3.63,4.75,7.38,7.76,10.37c1.49,1.5,3.13,2.78,5,3.78c1.85,1.02,3.86,1.82,5.89,2.63c2.03,0.82,4.1,1.64,6.1,2.7
				c2,1.04,3.88,2.43,5.46,4.07c3.17,3.29,5.11,7.59,5.83,12c0.64,4.42,0.02,9.05-2.08,12.93c3.45-8.14,1.14-17.91-4.86-23.83
				c-1.53-1.46-3.25-2.65-5.15-3.61c-1.9-0.96-3.93-1.71-5.98-2.49c-2.05-0.78-4.13-1.6-6.14-2.68c-2.01-1.06-3.87-2.49-5.48-4.09
				c-3.21-3.25-5.49-7.11-7.9-10.72c-1.2-1.82-2.43-3.59-3.83-5.2c-1.38-1.63-2.95-3.09-4.62-4.43
				C757.64,787.86,748.89,784.98,740.12,785.56z"/>
		</g>
		<path class="st31" d="M783.86,853.57c-9.61,22.74-19.21,45.48-28.82,68.22c-2.63,6.23-5.29,12.51-9.13,18.09
			c-7.85,11.41-20.14,19.1-33,24.23c-17.05,6.8-35.95,9.61-53.98,6.14c-18.03-3.47-35.04-13.55-45.26-28.79
			c-10.56-15.76-14.65-37.26-31.11-46.69c8.46,0.48,13.4,5.93,19.33,11.98c14.36,14.66,31.24,27.33,50.64,34.02
			c19.4,6.69,41.54,6.91,59.9-2.25c19.83-9.9,33.01-29.12,45.32-47.55C766.76,877.49,774.86,867.05,783.86,853.57z"/>
		<path d="M592.01,677.02c0,0-24.41-39.22-99.52,7.98C492.48,685,565.88,633.46,592.01,677.02z"/>
		<path d="M559.57,667.04c0,0-21.87-8.63-21.22-14.33v10.4c0,0-13.13-3.05-12.84-10.4v12.21c0,0-10.87-3.97-11.55-12.21
			c0,0-4.09,7.51,2.73,14.33c6.82,6.82-14.08-7.17-14.08-7.17s1.29,6.84,9.3,9.6c8.01,2.75-8.19,2.39-17.75-3.77
			c0,0,5.16,10.79,8.45,12.47c3.29,1.69-13.23,1.85-18.01-2.93c-4.78-4.78,13.66,8.83,13.66,8.83l-21.17-5.28
			c0,0,10.93,12.58,17.07,10.66c6.15-1.92-11.61,6.43-21.17-2.19c-9.56-8.62,12.55,18.32,26.63,5.93
			C499.61,693.21,530.13,661.58,559.57,667.04z"/>
		<path class="st28" d="M537.85,685.96c0,0,3.98-12.34,14.5-4.62c0,0,7.11,3.18,0,13.41C552.35,694.76,549.06,678.56,537.85,685.96z
			"/>
		<path class="st32" d="M722.74,673.94c0.13-0.4,0.35-0.89,0.77-0.88c0.31,0.01,0.52,0.3,0.68,0.57c2.14,3.65,3.34,7.94,6.32,10.93
			c0.25,0.26,0.55,0.51,0.91,0.53c-3.43,0.23-6.85,0.47-10.28,0.7c-3.84,0.26-3.01-1.73-1.77-4.53
			C720.46,678.8,721.92,676.52,722.74,673.94z"/>
		<path class="st32" d="M595.44,688.43c1.83,1.32,3.74,2.69,4.77,4.7c0.26,0.51,0.46,1.08,0.38,1.65c-0.18,1.28-1.6,1.94-2.84,2.29
			c-2.66,0.75-5.42,1.12-8.18,1.1c0.43,0.14,0.41,0.82,0.07,1.11c-0.35,0.29-0.84,0.29-1.29,0.27c-1.14-0.05-2.53-0.35-2.84-1.45
			c1.35-0.65,2.74-1.33,3.76-2.43c1.04-1.11,1.63-2.56,2.19-3.98c0.09-0.22,0.18-0.48,0.06-0.69c-0.08-0.15-0.25-0.23-0.4-0.32
			c-0.61-0.36-1.04-0.94-1.45-1.52c-0.83-1.15-1.66-2.3-2.48-3.45c-1.71-2.38-3.05-5.8,0.85-2.92
			C590.52,684.64,592.92,686.61,595.44,688.43z"/>
		<path class="st0" d="M637.46,407.86c0,0-137.49-24.62-213.59,107.93c0,0,0.05,52.79,29.62,78.59c0,0,19.91,16.47,6.62,51.05
			c0,0-18.12,17.63-13.29,42.53l6.67,38.97l1.4,22.29l-22.56-7.04L383.2,496.48l117.3-98.98l120.31-6.79L637.46,407.86z"/>
		<g>
			<path class="st8" d="M555.03,863.28c6.41-3.8,11.59-9.16,16.04-14.99c4.44-5.86,8.24-12.2,12.09-18.53
				c3.88-6.31,7.82-12.67,12.65-18.41c2.41-2.87,5.04-5.55,7.95-7.91c2.93-2.32,6.1-4.37,9.52-5.83
				c-6.49,3.66-11.76,8.94-16.26,14.72c-4.49,5.82-8.31,12.14-12.16,18.47c-3.88,6.31-7.8,12.68-12.57,18.45
				c-2.38,2.89-4.98,5.6-7.85,8.01C561.54,859.63,558.42,861.75,555.03,863.28z"/>
		</g>
	</g>
	<path class="st0" d="M449.99,407.31"/>
	<g>
		<path class="st33" d="M537.1,902.3c5.88,2.34,11.41,5.67,16.26,9.84c2.44,2.07,4.69,4.35,6.77,6.79c2.08,2.43,3.93,5.04,5.74,7.65
			c1.78,2.63,3.46,5.31,5.16,7.96c1.67,2.67,3.39,5.3,5.19,7.86c3.59,5.12,7.7,9.9,12.85,13.6c-2.79-1.5-5.33-3.45-7.71-5.58
			c-2.36-2.15-4.44-4.59-6.4-7.1c-3.93-5.02-7.2-10.46-10.75-15.63c-3.49-5.22-7.32-10.14-11.89-14.4
			C547.76,909.04,542.65,905.34,537.1,902.3z"/>
	</g>
	<path class="st34" d="M841.89,933.14l8.69,19.73c0,0,19.64-0.89,43.67-30.15c0,0-2.11,46.57,56.09,56.61
		c0,0-24.82-56.82-14.48-70.89c10.34-14.08,10.34-14.08,10.34-14.08s-12.32-91.74,1.1-106.43c0,0-42.35-36.45-46.34-45.25
		c-3.99-8.8-10.9,25.31-10.9,25.31S885.12,877.25,841.89,933.14z"/>
	<path class="st35" d="M782.14,428.36c0,0,69.32,66.17,72.81,89.74c0,0-7.85,48.03-2.18,96.35c0,0,14.6-3.13,8.46,38.89l36.42,57.67
		l12.18-186.39L782.14,428.36z"/>
	<polygon class="st0" points="449.99,736.95 440.75,773.1 431.41,729.42 	"/>
	
		<radialGradient id="SVGID_00000129925984172052440960000000985359993834671800_" cx="692.2571" cy="1036.5393" r="45.4418" gradientUnits="userSpaceOnUse">
		<stop  offset="0.7039" style="stop-color:#F2D1BB"/>
		<stop  offset="0.7483" style="stop-color:#F4CFB4"/>
		<stop  offset="0.8442" style="stop-color:#F7CCAB"/>
		<stop  offset="0.9843" style="stop-color:#F8CBA8"/>
		<stop  offset="0.9853" style="stop-color:#F8CBA8"/>
		<stop  offset="0.9919" style="stop-color:#F8CBA8"/>
	</radialGradient>
	
		<ellipse style="fill:url(#SVGID_00000129925984172052440960000000985359993834671800_);" cx="692.26" cy="1036.54" rx="54.12" ry="34.66"/>
	
		<radialGradient id="SVGID_00000101091205264010408900000011113257625096249247_" cx="614.11" cy="527.0453" r="45.4418" gradientTransform="matrix(2.684 0 0 2.7135 -1014.8684 -915.209)" gradientUnits="userSpaceOnUse">
		<stop  offset="0.3549" style="stop-color:#F2D1BB"/>
		<stop  offset="0.5542" style="stop-color:#F5CEB1"/>
		<stop  offset="0.7802" style="stop-color:#F7CCAC"/>
		<stop  offset="0.8052" style="stop-color:#F7CCAB"/>
		<stop  offset="0.9843" style="stop-color:#F8CBA8"/>
		<stop  offset="0.9853" style="stop-color:#F8CBA8"/>
		<stop  offset="0.9919" style="stop-color:#F8CBA8"/>
	</radialGradient>
	
		<ellipse style="fill:url(#SVGID_00000101091205264010408900000011113257625096249247_);" cx="633.39" cy="514.93" rx="145.25" ry="94.05"/>
	<g>
		<path class="st38" d="M920.82,534.92c-13.36-3.5-26.82-3.44-37.23-12c-5.49-4.52-10.1-11.02-15.01-16.17
			c-16.13-16.93-32.89-33.27-50.38-48.79c-36.41-32.31-82.21-71.46-132.49-77.57c-22.29-2.71-42.09,3.62-56.53,23.95
			c0,0-133.66-66.13-219.48,108.33c0,0-2.49,74.86,25.65,166.31c0,0,2.96,74.74,48.17,204.18c0,0,28.77,54.17,85.15,94.11
			l-35.36,63.01l-0.18-29.55c-7.42-32.36-40.42,5.63-40.42,5.63c0,37.99-28.14,68.2-28.14,68.2c4.22-27.47-2.81-92.12-16.09-68.2
			c-13.28,23.92-3.61,74.57-9.24,67.53s-7.03-21.1-7.03-21.1c1.41-23.92,2.81-42.21,2.81-42.21c7.03-36.58-40.8-73.16-40.8-73.16
			c-5.63,57.68-39.39,49.24-39.39,49.24c25.32-23.92,12.66-53.46,12.66-53.46c-2.81-16.88-18.29-26.73-18.29-26.73
			c-23.92-28.14-4.22-72.11-4.22-72.11c-23.92,8.09-32.36,65.07-32.36,65.07c-11.26-36.58,26.73-105.52,26.73-105.52
			c-32.36,33.77-35.17,75.97-35.17,75.97c-42.21,50.65-22.51,63.31-22.51,63.31c-12.66-14.07-7.03-28.14-7.03-28.14s0,0,18.29-33.77
			s0-85.82,0-85.82c8.44-43.62,32.36-84.3,32.36-84.3c35.17-81.49,37.99-153.47,37.99-153.47c-21.1-21.1-8.44-56.28-8.44-56.28
			c-45.02-42.21,23.92-102.71,23.92-102.71c-12.66-37.99,23.92-54.87,23.92-54.87c95.1-110.94,196.53-88.78,221.91-80.88
			c3.91,1.22,6.01,2.09,6.01,2.09s265.91-30.95,284.2,178.68c0,0,47.88-3.74,8.44,94.63c0,0,149.14,165.66,70.35,293.69
			c0,0-33.77,50.65-33.77,88.64c0,37.99,0,37.99,0,37.99s-45.02-83.01-11.26-151.95l-44.25-47.3l-6.92-34.54
			c0,0-27.62-137.64-7.93-195.33c0,0-0.19-0.22-0.55-0.63"/>
		<path d="M920.82,534.92c-7.11-1.85-14.43-2.7-21.56-4.52c-3.56-0.91-7.06-2.11-10.3-3.85c-3.25-1.72-6.19-4.01-8.77-6.63
			c-2.6-2.6-4.96-5.43-7.35-8.21c-1.2-1.39-2.4-2.78-3.65-4.12l-3.81-3.98c-5.1-5.28-10.26-10.5-15.49-15.65
			c-10.46-10.31-21.18-20.35-32.18-30.06c-11.01-9.72-22.1-19.34-33.61-28.45c-11.51-9.1-23.41-17.73-35.99-25.26
			c-12.59-7.5-25.87-13.92-39.85-18.27l-2.62-0.82l-1.31-0.41c-0.44-0.13-0.89-0.22-1.33-0.33l-5.33-1.28l-2.67-0.64l-2.71-0.44
			l-5.41-0.87c-0.45-0.07-0.9-0.15-1.35-0.21l-1.36-0.13l-2.72-0.25c-1.82-0.05-3.64-0.22-5.46-0.15
			c-3.65-0.04-7.28,0.37-10.86,0.96c-3.59,0.63-7.07,1.68-10.47,2.96c-3.35,1.41-6.59,3.06-9.6,5.1
			c-6.03,4.06-11.12,9.4-15.36,15.31l-0.31,0.43l-0.49-0.23c-5.1-2.35-10.49-4.22-15.91-5.83c-5.44-1.58-10.95-2.9-16.53-3.88
			c-11.15-1.99-22.52-2.72-33.83-2.22c-11.31,0.51-22.55,2.35-33.41,5.51c-10.87,3.15-21.33,7.62-31.21,13.12l-7.28,4.36
			c-0.62,0.35-1.2,0.74-1.78,1.16l-1.74,1.21l-3.48,2.43c-1.15,0.82-2.35,1.58-3.46,2.46l-3.31,2.66l-3.31,2.66
			c-1.1,0.89-2.23,1.75-3.24,2.74l-6.26,5.74l-1.56,1.43c-0.5,0.5-0.98,1.02-1.48,1.53l-2.94,3.07l-2.94,3.07
			c-0.98,1.02-1.97,2.03-2.86,3.14l-5.48,6.49c-0.9,1.09-1.86,2.14-2.71,3.27l-2.54,3.41l-5.09,6.81c-0.88,1.11-1.61,2.33-2.41,3.5
			l-2.35,3.55l-4.69,7.09c-2.86,4.9-5.77,9.76-8.59,14.68l-7.86,15.09l0.11-0.42c-0.21,13.99,0.56,28.06,1.73,42.05
			c0.31,3.5,0.59,7,0.99,10.49c0.4,3.49,0.7,6.99,1.18,10.47l1.35,10.45l1.58,10.42c2.25,13.86,4.8,27.69,8.05,41.36
			c1.49,6.87,3.33,13.64,5.09,20.44c0.84,3.41,1.88,6.77,2.85,10.14l2.95,10.11l0.04,0.15l0.01,0.16
			c0.51,8.65,1.54,17.37,2.74,26.02c1.17,8.66,2.63,17.29,4.17,25.9c3.14,17.21,6.95,34.3,11.13,51.29l3.23,12.72
			c1.1,4.23,2.3,8.44,3.45,12.67c2.25,8.46,4.82,16.83,7.29,25.22c1.2,4.21,2.58,8.36,3.89,12.54l3.97,12.51l8.41,24.88l-0.09-0.2
			c5.13,9.18,11.09,18.04,17.37,26.56c1.6,2.11,3.15,4.27,4.8,6.34l4.95,6.23l5.12,6.09c1.69,2.04,3.52,3.97,5.27,5.96l2.66,2.96
			l2.75,2.87c1.85,1.9,3.65,3.84,5.53,5.71c3.83,3.67,7.55,7.44,11.57,10.9c7.81,7.18,16.24,13.63,24.77,19.89l1.11,0.81l-0.66,1.18
			l-35.3,63.04l-2.94,5.25l-0.04-6.02l-0.21-29.55l0.04,0.35c-0.55-2.08-1.12-4.17-2.1-5.99c-0.92-1.83-2.13-3.49-3.71-4.51
			c-1.57-1.03-3.47-1.4-5.44-1.23c-1.98,0.17-4,0.81-5.93,1.68c-3.87,1.8-7.49,4.36-10.87,7.19c-3.37,2.83-6.6,5.96-9.51,9.21
			l0.41-1.1l-0.21,4.8l-0.11,2.4l-0.31,2.38c-0.21,1.58-0.4,3.18-0.64,4.76l-0.99,4.69c-1.46,6.21-3.41,12.32-6.01,18.13
			c-2.54,5.83-5.52,11.47-8.91,16.85c-0.87,1.33-1.72,2.67-2.61,3.99c-0.92,1.29-1.8,2.62-2.76,3.89c-1.89,2.58-3.84,5.03-6.02,7.48
			l-3.77,4.22l0.83-5.65c1.05-7.16,1.25-14.55,1.18-21.88c-0.1-7.35-0.55-14.7-1.39-21.99c-0.42-3.64-0.95-7.27-1.63-10.86
			c-0.69-3.58-1.52-7.14-2.72-10.48c-0.6-1.66-1.31-3.28-2.21-4.58c-0.44-0.64-0.96-1.18-1.4-1.43c-0.46-0.24-0.69-0.27-1.15-0.08
			c-0.46,0.18-1.03,0.65-1.54,1.23c-0.53,0.57-0.99,1.29-1.45,1.99c-0.89,1.47-1.68,3.08-2.36,4.72c-2.71,6.6-3.96,13.86-4.68,21.11
			c-0.71,7.28-0.83,14.64-0.76,22.01l0.19,11.1c0.02,1.87,0.04,3.73-0.04,5.66c-0.06,0.98-0.08,1.91-0.35,3.09
			c-0.03,0.14-0.07,0.3-0.14,0.48l-0.09,0.26l-0.15,0.32l-0.08,0.16c-0.04,0.06-0.09,0.14-0.14,0.21c-0.12,0.15-0.18,0.25-0.37,0.42
			c-0.21,0.17-0.42,0.31-0.68,0.41c-0.28,0.1-0.64,0.15-0.91,0.13c-0.24-0.03-0.49-0.08-0.71-0.17c-0.17-0.07-0.29-0.14-0.43-0.23
			c-0.15-0.09-0.24-0.17-0.32-0.23l-0.24-0.22c-0.26-0.27-0.47-0.53-0.6-0.71c-2.47-3.27-3.86-6.94-4.97-10.59
			c-1.08-3.68-1.81-7.36-2.27-11.2l-0.02-0.13l0.01-0.15l2.8-42.24l0.01-0.08l0.02-0.12c0.61-3.43,0.78-6.93,0.52-10.42
			c-0.23-3.5-1.03-6.95-2.04-10.33c-1.01-3.39-2.39-6.68-3.98-9.87c-1.59-3.19-3.38-6.29-5.37-9.28
			c-3.95-5.99-8.53-11.58-13.46-16.84c-4.93-5.23-10.25-10.23-15.83-14.66l2.89-1.26c-0.61,5.98-1.54,11.96-3.07,17.83
			c-0.33,1.48-0.84,2.92-1.26,4.37c-0.45,1.45-1.01,2.87-1.52,4.31c-1.19,2.82-2.42,5.63-4.06,8.26c-1.61,2.63-3.46,5.15-5.65,7.39
			c-2.18,2.24-4.71,4.2-7.5,5.69c-2.79,1.49-5.82,2.57-8.95,3.07c-1.56,0.27-3.15,0.4-4.74,0.4c-0.79,0-1.59-0.04-2.39-0.11
			c-0.82-0.08-1.55-0.17-2.48-0.38l-3.3-0.74l2.49-2.36c3.42-3.25,6.42-6.9,8.84-10.91c2.39-4.02,4.17-8.39,5.22-12.94
			c1.04-4.55,1.4-9.27,1.06-13.95c-0.16-2.34-0.48-4.67-0.97-6.97c-0.47-2.27-1.13-4.62-1.93-6.64l-0.07-0.18l-0.05-0.25l-0.42-1.91
			l-0.21-0.96l-0.3-0.94l-0.59-1.87L363.4,936c-1.06-2.4-2.35-4.72-3.92-6.87c-1.54-2.16-3.28-4.19-5.18-6.06
			c-1.89-1.85-4-3.63-6.09-5.04l-0.27-0.18l-0.15-0.18c-2.07-2.55-4.01-5.22-5.57-8.11c-1.54-2.9-2.9-5.9-3.86-9.03
			c-0.97-3.12-1.73-6.31-2.17-9.54c-0.45-3.22-0.67-6.47-0.7-9.71c0.01-6.48,0.74-12.92,2.08-19.21c0.67-3.15,1.47-6.26,2.41-9.34
			c0.96-3.09,1.98-6.08,3.29-9.14l2.32,2.55c-2.68,0.9-5.14,2.52-7.32,4.5c-2.18,1.99-4.1,4.32-5.82,6.81
			c-1.73,2.48-3.24,5.15-4.62,7.9c-1.38,2.74-2.63,5.57-3.75,8.45c-2.27,5.75-4.11,11.7-5.7,17.71c-1.56,6-2.9,12.14-3.87,18.21
			l-1.3,8.14l-2.4-7.86c-1.42-4.65-1.99-9.45-2.12-14.19c-0.12-4.75,0.21-9.47,0.81-14.14c0.64-4.66,1.53-9.27,2.6-13.82
			c1.08-4.55,2.36-9.04,3.74-13.5c2.81-8.9,6.11-17.61,9.78-26.16c3.68-8.56,7.62-16.94,12.05-25.2l3.1,2.28
			c-4.69,5.17-9.26,10.48-13.06,16.36c-2.04,2.84-3.72,5.92-5.52,8.91c-0.85,1.52-1.62,3.1-2.44,4.64l-1.2,2.33l-1.08,2.39
			c-0.7,1.6-1.5,3.16-2.11,4.8l-1.93,4.88l-1.71,4.96c-0.55,1.66-1.02,3.35-1.53,5.02c-0.5,1.68-0.89,3.38-1.35,5.07
			c-0.41,1.7-0.78,3.41-1.14,5.12c-0.67,3.41-1.25,6.92-1.55,10.27l-0.06,0.65l-0.39,0.48c-3.81,4.61-7.49,9.31-10.93,14.18
			c-3.43,4.86-6.62,9.89-9.33,15.13c-1.38,2.61-2.57,5.3-3.61,8.02c-1.04,2.72-1.86,5.51-2.34,8.32c-0.49,2.8-0.58,5.63-0.11,8.28
			c0.24,1.32,0.65,2.59,1.24,3.72c0.3,0.56,0.63,1.11,1.01,1.58c0.19,0.24,0.39,0.47,0.59,0.67c0.1,0.11,0.21,0.19,0.31,0.29
			c0.08,0.07,0.24,0.19,0.21,0.18l-2.55,3c-0.84-1.04-1.72-2.04-2.51-3.12l-1.13-1.66c-0.19-0.28-0.38-0.55-0.56-0.84l-0.49-0.88
			l-0.97-1.77l-0.81-1.86c-0.29-0.61-0.51-1.25-0.71-1.9c-0.2-0.65-0.46-1.28-0.6-1.94c-0.72-2.62-1.02-5.35-1-8.06
			c0.01-1.36,0.14-2.72,0.34-4.07c0.13-0.67,0.23-1.35,0.41-2.02c0.16-0.69,0.34-1.3,0.62-2.09l0.03-0.09l0.07-0.12l15.05-27.77
			c1.23-2.31,2.56-4.65,3.71-6.92c0.57-1.14,1.16-2.26,1.63-3.44l0.75-1.76c0.23-0.59,0.43-1.2,0.65-1.8
			c1.72-4.8,2.85-9.83,3.54-14.93c1.37-10.22,0.98-20.68-0.32-30.98c-0.66-5.16-1.59-10.29-2.72-15.37
			c-1.14-5.06-2.48-10.16-4.1-15.01l-0.18-0.54l0.1-0.48l1.21-5.59l0.61-2.79l0.71-2.77c0.48-1.84,0.94-3.69,1.44-5.53l1.62-5.48
			c2.23-7.28,4.7-14.48,7.51-21.54c2.78-7.07,5.79-14.06,9.03-20.93c3.26-6.87,6.69-13.62,10.49-20.28l-0.11,0.21l3.76-9.14
			c1.25-3.05,2.55-6.08,3.65-9.19l3.44-9.27l0.86-2.32l0.79-2.34l1.57-4.69c4.28-12.47,7.86-25.17,11.1-37.95
			c3.26-12.78,5.87-25.71,8.07-38.71c2.15-12.98,3.89-26.13,4.64-39.17l0.55,1.4c-3.66-3.72-6.67-8.12-8.7-12.92
			c-2.07-4.78-3.23-9.89-3.75-15.01c-0.49-5.12-0.36-10.27,0.27-15.33c0.64-5.08,1.66-10.02,3.31-14.98l0.48,1.99l-2.68-2.76
			l-1.34-1.38l-1.2-1.51c-0.79-1.02-1.63-2-2.37-3.06l-2.08-3.28c-2.58-4.49-4.47-9.41-5.42-14.52c-0.94-5.12-0.86-10.36-0.16-15.45
			c0.73-5.09,2.08-10.07,3.94-14.8c3.74-9.48,9-18.22,15.05-26.27c6.08-8.06,12.76-15.54,20.26-22.4l-0.53,1.95
			c-1.77-5.36-2.8-11.03-2.74-16.76c0.1-2.86,0.39-5.73,1.04-8.53c0.66-2.79,1.6-5.52,2.8-8.12c2.44-5.19,5.92-9.82,9.98-13.77
			c2.03-1.98,4.21-3.79,6.5-5.45c2.32-1.66,4.65-3.14,7.31-4.45l-0.61,0.46l5.37-6.02c1.8-2,3.54-4.04,5.45-5.94
			c3.74-3.86,7.42-7.78,11.38-11.42c7.7-7.51,16-14.4,24.54-20.94c17.21-12.91,36.05-23.83,56.26-31.4
			c20.16-7.65,41.57-12.06,63.14-12.82c2.7-0.08,5.39-0.11,8.09-0.1c2.7,0.07,5.4,0.07,8.09,0.25c5.39,0.24,10.76,0.79,16.11,1.52
			c5.35,0.73,10.66,1.71,15.92,2.96c2.63,0.63,5.25,1.31,7.84,2.09c2.61,0.77,5.15,1.59,7.77,2.63l-0.86-0.12
			c7.94-0.82,15.79-1.22,23.7-1.44c7.9-0.22,15.8-0.21,23.69,0c15.79,0.44,31.56,1.71,47.21,3.93c15.64,2.23,31.17,5.39,46.37,9.79
			c15.18,4.42,30.1,9.93,44.25,17.07c7.08,3.55,13.98,7.47,20.64,11.78c6.65,4.32,13.02,9.08,19.07,14.21
			c12.15,10.22,22.76,22.25,31.55,35.47c4.33,6.66,8.23,13.59,11.64,20.75c0.83,1.8,1.61,3.63,2.41,5.44
			c0.39,0.91,0.82,1.81,1.18,2.73l1.07,2.78c0.69,1.86,1.47,3.68,2.09,5.57l1.88,5.64c2.34,7.57,4.37,15.25,5.78,23.04
			c1.57,7.77,2.48,15.64,3.27,23.51l-1.53-1.3c1.35-0.06,2.51,0.04,3.74,0.21c1.21,0.16,2.39,0.45,3.57,0.79
			c2.33,0.71,4.57,1.77,6.56,3.19c2,1.42,3.73,3.18,5.2,5.11l1.03,1.5c0.36,0.49,0.6,1.05,0.91,1.57c0.63,1.04,1.06,2.16,1.54,3.26
			c1.8,4.45,2.58,9.18,2.83,13.85c0.13,1.17,0.07,2.34,0.1,3.51l0.02,1.75c0,0.58-0.05,1.16-0.08,1.75l-0.18,3.49l-0.37,3.46
			c-1.06,9.23-3.22,18.25-5.87,27.08c-2.66,8.83-5.83,17.48-9.21,26.03l-0.24-1.37c6.32,7.21,12.2,14.68,17.92,22.3
			c5.71,7.62,11.18,15.43,16.44,23.37c10.5,15.9,20.11,32.39,28.51,49.5c8.39,17.11,15.59,34.84,20.93,53.16
			c5.37,18.3,8.85,37.23,9.49,56.34c0.32,9.55-0.03,19.13-1.28,28.62c-1.24,9.48-3.3,18.86-6.22,27.97
			c-2.92,9.11-6.7,17.94-11.26,26.34c-0.54,1.07-1.14,2.1-1.75,3.13l-1.82,3.1c-0.31,0.52-0.59,1.04-0.93,1.55l-0.96,1.48
			l-1.88,3.01c-2.48,4.03-4.86,8.13-7.14,12.27c-4.57,8.29-8.76,16.8-12.42,25.53c-3.63,8.73-6.78,17.68-8.86,26.88
			c-1.03,4.6-1.79,9.26-2.11,13.94c-0.31,4.66-0.16,9.44-0.21,14.19l-0.05,28.5l-0.01,3.31l-1.5-2.93
			c-6.03-11.79-10.73-24.11-14.58-36.72c-1.91-6.3-3.56-12.69-4.93-19.13c-1.35-6.45-2.4-12.96-3.14-19.51
			c-0.77-6.55-1.07-13.14-1.07-19.74c-0.03-6.59,0.49-13.19,1.36-19.72c0.82-6.55,2.33-12.99,4.15-19.33l1.49-4.72
			c0.52-1.56,1.16-3.09,1.73-4.63l0.88-2.31c0.31-0.76,0.67-1.51,1.01-2.26l2.05-4.51l0.09,0.62l-44.17-47.37l-0.09-0.09l-0.02-0.12
			l-5.66-28.47c-1.94-9.48-3.62-19.02-5.19-28.57c-3.11-19.11-5.71-38.3-7.63-57.56c-1.9-19.26-3.2-38.6-3.12-57.96
			c0.05-9.68,0.43-19.36,1.46-28.99c1.04-9.61,2.67-19.21,5.73-28.4l0,0l-0.54-0.63l0.55,0.63l0,0c-3.02,9.2-4.61,18.8-5.61,28.41
			c-0.98,9.62-1.32,19.3-1.33,28.97c0,19.35,1.38,38.67,3.36,57.91c2,19.24,4.68,38.41,7.84,57.5c1.6,9.54,3.31,19.06,5.28,28.53
			l5.75,28.45l-0.11-0.22l44.32,47.23l0.25,0.27l-0.16,0.35l-2.01,4.47c-0.33,0.75-0.68,1.48-0.99,2.24l-0.87,2.29
			c-0.56,1.53-1.19,3.04-1.7,4.6l-1.47,4.68c-1.78,6.28-3.26,12.67-4.05,19.16c-0.84,6.48-1.34,13.02-1.29,19.56
			c0.02,6.54,0.34,13.08,1.13,19.58c0.75,6.5,1.82,12.96,3.18,19.37c1.38,6.4,3.05,12.74,4.96,19c3.86,12.49,8.61,24.79,14.58,36.38
			l-1.5,0.38l-0.05-28.5c0.03-4.75-0.13-9.48,0.17-14.31c0.32-4.79,1.08-9.54,2.11-14.21c2.08-9.35,5.24-18.4,8.88-27.21
			c3.66-8.81,7.86-17.39,12.43-25.75c2.29-4.18,4.67-8.31,7.15-12.38l1.89-3.04l0.97-1.51c0.32-0.48,0.6-1.01,0.9-1.51l1.78-3.05
			c0.6-1.01,1.19-2.03,1.72-3.09c4.49-8.3,8.2-17.02,11.06-26.01c2.87-8.99,4.88-18.25,6.09-27.61c1.21-9.36,1.54-18.83,1.21-28.27
			c-0.68-18.89-4.15-37.63-9.51-55.77c-5.33-18.16-12.52-35.76-20.89-52.75c-8.38-16.99-17.97-33.38-28.44-49.17
			c-5.25-7.89-10.71-15.64-16.4-23.21c-5.7-7.56-11.59-15.02-17.82-22.09l-0.54-0.62l0.3-0.76c3.34-8.5,6.47-17.09,9.08-25.82
			c2.61-8.73,4.72-17.62,5.73-26.62l0.35-3.37l0.17-3.38c0.02-0.56,0.07-1.13,0.07-1.69l-0.02-1.68c-0.03-1.12,0.02-2.25-0.1-3.36
			c-0.25-4.46-1-8.91-2.66-12.97c-0.44-1-0.84-2.02-1.4-2.95c-0.28-0.47-0.5-0.97-0.82-1.41l-0.92-1.33
			c-1.31-1.71-2.83-3.24-4.57-4.48c-1.74-1.24-3.7-2.17-5.76-2.79c-1.03-0.29-2.08-0.55-3.14-0.69c-1.04-0.15-2.18-0.23-3.12-0.18
			l-1.39,0.06l-0.14-1.36c-0.8-7.78-1.71-15.55-3.28-23.21c-1.41-7.69-3.43-15.25-5.74-22.7l-1.86-5.55
			c-0.61-1.85-1.39-3.65-2.07-5.47l-1.06-2.73c-0.36-0.91-0.78-1.79-1.16-2.68c-0.8-1.78-1.56-3.57-2.38-5.34
			c-3.37-7.03-7.21-13.83-11.47-20.36c-8.65-12.96-19.08-24.75-31.04-34.76c-5.96-5.03-12.22-9.7-18.78-13.94
			c-6.56-4.22-13.37-8.07-20.35-11.56c-13.97-7.01-28.71-12.43-43.73-16.77c-15.04-4.33-30.43-7.41-45.93-9.62
			c-15.51-2.19-31.16-3.43-46.82-3.86c-7.83-0.21-15.67-0.21-23.5,0.01c-7.82,0.23-15.68,0.64-23.4,1.44l-0.44,0.05l-0.42-0.17
			c-2.35-0.93-4.91-1.77-7.42-2.5c-2.53-0.76-5.09-1.41-7.66-2.03c-5.15-1.21-10.36-2.18-15.6-2.89
			c-5.25-0.71-10.52-1.25-15.81-1.48c-2.64-0.18-5.29-0.17-7.94-0.24c-2.65,0-5.3,0.03-7.94,0.11c-21.18,0.76-42.2,5.1-62.01,12.63
			c-19.86,7.45-38.4,18.2-55.36,30.95c-8.42,6.46-16.6,13.26-24.21,20.69c-3.91,3.6-7.54,7.48-11.24,11.3
			c-1.88,1.88-3.6,3.91-5.38,5.88l-5.31,5.95l-0.26,0.29l-0.36,0.18c-2.25,1.11-4.58,2.57-6.71,4.11c-2.15,1.56-4.19,3.26-6.09,5.11
			c-3.79,3.69-6.99,7.98-9.22,12.72c-1.1,2.38-1.94,4.86-2.55,7.4c-0.59,2.55-0.85,5.16-0.94,7.77c-0.04,5.24,0.89,10.5,2.57,15.55
			l0.37,1.12l-0.9,0.82c-7.19,6.58-13.84,14.01-19.73,21.85c-5.9,7.86-10.98,16.35-14.55,25.4c-1.78,4.53-3.04,9.23-3.72,13.99
			c-0.65,4.75-0.72,9.59,0.15,14.28c0.88,4.68,2.6,9.17,4.98,13.3l1.92,3.02c0.68,0.98,1.48,1.89,2.21,2.84l1.12,1.41l1.26,1.3
			l2.52,2.59l0.85,0.87l-0.37,1.11c-1.5,4.49-2.52,9.37-3.11,14.18c-0.6,4.83-0.71,9.71-0.25,14.51c0.49,4.79,1.57,9.52,3.47,13.89
			c1.86,4.39,4.58,8.36,7.91,11.74l0.6,0.6l-0.05,0.8c-0.77,13.39-2.5,26.52-4.66,39.65c-2.21,13.1-4.84,26.13-8.11,39.01
			c-3.25,12.88-6.86,25.67-11.16,38.25l-1.58,4.72l-0.79,2.36l-0.86,2.34l-3.47,9.34c-1.11,3.13-2.42,6.19-3.67,9.26l-3.78,9.22
			l-0.03,0.08l-0.07,0.13c-3.68,6.46-7.11,13.2-10.31,19.98c-3.2,6.8-6.17,13.7-8.91,20.69c-2.77,6.98-5.21,14.08-7.4,21.25
			l-1.59,5.39c-0.49,1.81-0.94,3.63-1.41,5.44l-0.7,2.72l-0.6,2.74l-1.18,5.48l-0.08-1.02c1.72,5.14,3.06,10.24,4.24,15.45
			c1.15,5.2,2.11,10.44,2.79,15.72c1.33,10.56,1.76,21.33,0.34,32.01c-0.72,5.33-1.91,10.63-3.73,15.74
			c-0.23,0.64-0.45,1.28-0.69,1.91l-0.8,1.88c-0.5,1.27-1.13,2.47-1.74,3.69c-1.23,2.42-2.5,4.66-3.75,7L276.39,916l0.1-0.21
			c-0.14,0.41-0.33,1.01-0.45,1.55c-0.15,0.55-0.23,1.13-0.35,1.7c-0.16,1.16-0.28,2.32-0.29,3.5c-0.02,2.34,0.23,4.71,0.86,6.98
			c0.12,0.58,0.35,1.12,0.52,1.69c0.17,0.56,0.36,1.12,0.62,1.66l0.7,1.63l0.86,1.56l0.43,0.78c0.15,0.25,0.33,0.49,0.5,0.74l1,1.48
			c0.7,0.96,1.51,1.86,2.25,2.8l8.16,10.26l-10.72-7.26c-0.34-0.23-0.47-0.35-0.67-0.52c-0.17-0.16-0.36-0.32-0.51-0.49
			c-0.33-0.33-0.62-0.67-0.9-1.02c-0.56-0.7-1.01-1.45-1.42-2.22c-0.8-1.54-1.31-3.18-1.61-4.81c-0.58-3.28-0.45-6.56,0.1-9.68
			c0.54-3.13,1.43-6.15,2.54-9.04c1.11-2.9,2.37-5.72,3.8-8.44c2.82-5.46,6.11-10.62,9.62-15.59c3.52-4.97,7.26-9.75,11.13-14.42
			l-0.45,1.13c0.71-7.35,2.22-14.32,4.19-21.27c0.53-1.72,1.01-3.46,1.58-5.16l1.76-5.1l1.99-5.02c0.63-1.69,1.45-3.29,2.17-4.94
			l1.12-2.46l1.23-2.4c0.84-1.59,1.63-3.21,2.51-4.78c1.85-3.09,3.59-6.25,5.69-9.18c3.92-6.06,8.64-11.54,13.49-16.87l10.53-11.55
			l-7.43,13.83c-4.32,8.05-8.27,16.41-11.9,24.85c-3.63,8.45-6.89,17.05-9.66,25.8c-1.36,4.38-2.62,8.78-3.68,13.23
			c-1.04,4.45-1.91,8.93-2.54,13.44c-0.58,4.51-0.89,9.04-0.78,13.53c0.12,4.49,0.66,8.96,1.95,13.17l-3.7,0.28
			c1.02-6.32,2.37-12.47,3.97-18.62c1.63-6.13,3.51-12.2,5.85-18.13c1.16-2.97,2.45-5.89,3.9-8.76c1.44-2.87,3.03-5.68,4.89-8.34
			c1.85-2.67,3.93-5.22,6.4-7.46c2.46-2.23,5.35-4.16,8.64-5.26l3.95-1.33l-1.64,3.88c-2.36,5.61-4.16,11.67-5.46,17.71
			c-1.3,6.07-2,12.26-2.02,18.42c0.02,3.08,0.24,6.15,0.65,9.19c0.42,3.04,1.13,6.02,2.03,8.93c0.89,2.92,2.15,5.7,3.57,8.38
			c1.44,2.68,3.23,5.14,5.14,7.5l-0.42-0.36c2.5,1.69,4.62,3.51,6.7,5.53c2.05,2.01,3.92,4.21,5.6,6.55
			c1.7,2.33,3.12,4.88,4.29,7.54l0.84,2.02l0.67,2.09l0.33,1.05l0.23,1.07l0.46,2.15l-0.12-0.42c0.99,2.49,1.62,4.86,2.15,7.34
			c0.52,2.46,0.86,4.96,1.03,7.47c0.36,5.02-0.03,10.1-1.16,15.03c-1.13,4.93-3.07,9.66-5.65,14c-2.62,4.32-5.84,8.24-9.48,11.68
			l-0.81-3.1c0.53,0.12,1.27,0.22,1.93,0.28c0.68,0.06,1.37,0.09,2.06,0.09c1.38,0.01,2.77-0.11,4.13-0.34
			c2.74-0.43,5.38-1.38,7.82-2.68c4.92-2.6,8.84-6.9,11.78-11.76c1.52-2.42,2.68-5.06,3.8-7.71c0.48-1.36,1.02-2.7,1.45-4.09
			c0.4-1.39,0.89-2.76,1.21-4.18c1.47-5.63,2.38-11.42,2.98-17.26l0.34-3.29l2.56,2.03c5.85,4.65,11.18,9.68,16.26,15.06
			c5.04,5.38,9.74,11.12,13.83,17.33c2.06,3.09,3.92,6.32,5.58,9.66c1.67,3.34,3.11,6.8,4.19,10.41c1.07,3.6,1.92,7.3,2.17,11.1
			c0.28,3.78,0.1,7.62-0.58,11.37l0.03-0.2l-2.83,42.18l-0.01-0.28c0.41,3.51,1.13,7.13,2.14,10.55c1.02,3.41,2.36,6.78,4.37,9.43
			c0.13,0.2,0.22,0.29,0.28,0.35l0.02,0.01c0.01,0.02,0.01,0.01-0.04-0.02c-0.04-0.03-0.06-0.03-0.13-0.06
			c-0.11-0.06-0.25-0.09-0.38-0.08c-0.16-0.02-0.39,0-0.57,0.08c-0.16,0.06-0.28,0.12-0.39,0.23c-0.1,0.1-0.11,0.09-0.15,0.16
			c-0.02,0.02-0.03,0.06-0.04,0.07l-0.01,0l0,0.01l0.02-0.07c0.02-0.04,0.03-0.1,0.05-0.19c0.15-0.63,0.21-1.56,0.25-2.42
			c0.08-1.77,0.06-3.61,0.04-5.45l-0.18-11.11c-0.07-7.44,0.06-14.91,0.79-22.38c0.76-7.45,2.03-14.97,4.95-22.11
			c0.74-1.78,1.58-3.51,2.61-5.2c0.55-0.84,1.09-1.68,1.82-2.48c0.72-0.79,1.56-1.6,2.82-2.13c0.61-0.28,1.38-0.4,2.13-0.36
			c0.74,0.08,1.48,0.3,2.04,0.65c1.17,0.68,1.9,1.58,2.52,2.44c1.21,1.76,1.96,3.57,2.63,5.39c1.3,3.64,2.15,7.32,2.86,11.01
			c0.7,3.69,1.24,7.4,1.66,11.11c0.85,7.42,1.3,14.88,1.4,22.34c0.07,7.47-0.13,14.94-1.23,22.44l-2.94-1.42
			c2-2.24,3.96-4.69,5.78-7.17c0.94-1.23,1.79-2.52,2.69-3.78c0.87-1.28,1.7-2.59,2.55-3.88c3.3-5.24,6.2-10.73,8.67-16.39
			c2.53-5.64,4.41-11.55,5.83-17.53l0.96-4.52c0.23-1.52,0.41-3.05,0.62-4.57l0.3-2.29l0.11-2.3l0.21-4.6l0.03-0.68l0.38-0.42
			c3.1-3.46,6.38-6.61,9.91-9.57c3.53-2.94,7.33-5.64,11.65-7.64c2.17-0.97,4.5-1.74,7.03-1.95c2.5-0.22,5.27,0.28,7.49,1.76
			c2.24,1.46,3.74,3.61,4.83,5.77c1.15,2.17,1.76,4.47,2.36,6.74l0.04,0.15l0,0.2l0.15,29.55l-2.98-0.77l35.42-62.97l0.45,1.99
			c-8.62-6.35-17.13-12.89-25.01-20.16c-4.05-3.51-7.81-7.33-11.67-11.04c-1.89-1.89-3.71-3.86-5.57-5.78l-2.77-2.9l-2.67-2.99
			c-1.77-2.01-3.61-3.96-5.31-6.02l-5.16-6.15l-4.98-6.3c-1.66-2.1-3.22-4.28-4.83-6.41c-6.33-8.64-12.28-17.51-17.54-26.94
			l-0.05-0.09l-0.04-0.11l-8.38-24.95l-3.96-12.55c-1.31-4.19-2.68-8.35-3.88-12.58c-2.45-8.42-5.02-16.81-7.26-25.3
			c-1.14-4.24-2.34-8.46-3.43-12.71l-3.22-12.76c-4.17-17.05-7.95-34.19-11.07-51.47c-1.52-8.65-2.97-17.31-4.13-26.01
			c-1.19-8.71-2.21-17.41-2.71-26.26l0.05,0.31l-2.94-10.16c-0.97-3.39-2.01-6.76-2.84-10.19c-1.75-6.83-3.58-13.64-5.07-20.54
			c-3.23-13.73-5.76-27.61-8-41.53l-1.56-10.46l-1.33-10.49c-0.47-3.49-0.77-7.01-1.16-10.51c-0.4-3.5-0.67-7.02-0.98-10.53
			c-1.15-14.06-1.9-28.13-1.66-42.29l0-0.23l0.1-0.2l7.94-15.16c2.85-4.94,5.79-9.84,8.68-14.76l4.74-7.13l2.37-3.56
			c0.8-1.18,1.55-2.4,2.44-3.52l5.15-6.85l2.57-3.42c0.87-1.13,1.83-2.19,2.75-3.29l5.55-6.53c0.9-1.11,1.9-2.13,2.9-3.16l2.97-3.09
			l2.97-3.09c0.5-0.51,0.98-1.04,1.49-1.54l1.58-1.44l6.34-5.78c1.03-0.99,2.17-1.86,3.28-2.75l3.35-2.67l3.35-2.67
			c1.13-0.88,2.34-1.65,3.5-2.47l3.53-2.44l1.76-1.22c0.58-0.42,1.18-0.81,1.8-1.16l7.37-4.39c10.01-5.53,20.61-10.02,31.61-13.17
			c10.99-3.16,22.37-4.98,33.79-5.46c11.42-0.47,22.89,0.31,34.14,2.35c5.62,1.01,11.18,2.36,16.67,3.97
			c5.48,1.64,10.86,3.52,16.09,5.96l-0.8,0.2c4.33-5.99,9.55-11.43,15.73-15.57c3.08-2.08,6.41-3.76,9.83-5.19
			c3.48-1.3,7.04-2.37,10.7-2.99c3.65-0.59,7.35-0.99,11.05-0.94c1.85-0.07,3.7,0.11,5.54,0.17l2.76,0.27l1.38,0.14
			c0.46,0.06,0.91,0.15,1.37,0.22l5.46,0.9l2.73,0.45l2.69,0.65l5.37,1.31c0.45,0.11,0.9,0.21,1.34,0.34l1.32,0.42l2.63,0.84
			c14.06,4.43,27.39,10.93,39.99,18.49c12.6,7.6,24.5,16.29,36,25.44c11.49,9.16,22.57,18.83,33.53,28.59
			c10.97,9.77,21.65,19.86,32.07,30.22c5.21,5.18,10.35,10.42,15.43,15.73l3.79,4c1.25,1.35,2.44,2.74,3.63,4.14
			c2.38,2.8,4.72,5.62,7.3,8.23c2.56,2.62,5.47,4.91,8.7,6.64c3.23,1.74,6.71,2.96,10.26,3.88
			C906.39,532.16,913.71,533.04,920.82,534.92z"/>
	</g>
	<path class="st0" d="M477.83,849.18c0,0,44.46,65.71,75.86,95.32c0,0,57.48,53.49,67.88,77c0,0,25.09,39.15,64.41,42.69
		c0,0,40.75,2.14,68-13.66c0,0-39.48,33-75.84,18.09c-36.36-14.91-27.78,1.65-90.02-70.51c0,0-97.07-89.08-107.37-123.84
		c-10.3-34.75-1.93-3.7-1.93-3.7l-8.37-31.05L477.83,849.18z"/>
	
		<linearGradient id="SVGID_00000001638716519345305030000004596878392325240480_" gradientUnits="userSpaceOnUse" x1="776.1155" y1="928.9378" x2="889.4785" y2="928.9378" gradientTransform="matrix(1.2008 -0.0801 0.0722 1.0831 -241.0058 -17.6178)">
		<stop  offset="0.144" style="stop-color:#F7CCAC"/>
		<stop  offset="0.2123" style="stop-color:#E9BA99"/>
		<stop  offset="0.2959" style="stop-color:#DEAC8A"/>
		<stop  offset="0.393" style="stop-color:#D8A481"/>
		<stop  offset="0.5348" style="stop-color:#D6A17E"/>
		<stop  offset="0.54" style="stop-color:#D39D79"/>
		<stop  offset="0.5695" style="stop-color:#D6A07C"/>
		<stop  offset="0.9843" style="stop-color:#F8CBA8"/>
		<stop  offset="0.9853" style="stop-color:#F8CBA8"/>
		<stop  offset="0.9919" style="stop-color:#F8CBA8"/>
	</linearGradient>
	<path style="fill:url(#SVGID_00000001638716519345305030000004596878392325240480_);" d="M886.03,795.29
		c0,0-28.16,83.79-51.7,117.32c0,0-25.18,33.5-41.96,64.67c0,0-17.66,33.63-21.93,52.32c-4.27,18.7-4.27,18.7-4.27,18.7
		s64.79-75.67,90.55-141.48C856.71,906.83,886.63,847.68,886.03,795.29z"/>
	<g>
		<path class="st38" d="M621.67,408.81c-9.38-84.02,1.41-139.29,1.41-139.29"/>
		<path d="M621.67,408.81c-0.88-5.76-1.72-11.53-2.41-17.32c-0.57-5.8-1.3-11.59-1.63-17.42c-0.96-11.63-1.21-23.31-1.29-34.98
			c0.11-5.84,0.15-11.67,0.44-17.5l0.2-4.37l0.28-4.37c0.18-2.91,0.38-5.82,0.67-8.73c1.06-11.62,2.52-23.23,5.14-34.6
			c-1.39,11.57-2.19,23.17-2.8,34.76c-0.17,2.9-0.26,5.8-0.38,8.7l-0.18,4.35l-0.09,4.35c-0.2,5.8-0.22,11.61-0.28,17.41
			c0.04,5.81-0.03,11.61,0.15,17.42l0.16,8.71c0.12,2.9,0.22,5.8,0.3,8.71l0.14,4.36l0.22,4.35l0.41,8.71
			C621,397.18,621.44,402.98,621.67,408.81z"/>
	</g>
	<path class="st6" d="M624.11,388.21"/>
	<g>
		<path d="M620.18,386.16c2.61-1.84,5.44-3.39,8.38-4.66c2.95-1.26,6.01-2.25,9.12-3.06c6.22-1.59,12.6-2.51,18.96-3.13l9.57-0.87
			c3.2-0.2,6.4-0.32,9.6-0.49c3.2-0.21,6.4-0.2,9.61-0.22c3.2,0.01,6.41-0.12,9.61,0.05l9.61,0.33c3.2,0.22,6.39,0.5,9.59,0.75
			c3.2,0.2,6.38,0.64,9.57,1.02c3.18,0.41,6.38,0.71,9.54,1.29l9.5,1.57l9.42,1.96c3.15,0.6,6.25,1.45,9.36,2.22
			c3.11,0.79,6.24,1.51,9.3,2.47c24.66,7.09,48.5,17.18,70.53,30.32c11.16,6.38,21.28,14.27,32.77,19.71
			c11.39,5.69,23.55,9.71,35.61,13.92c-6.13-1.79-12.26-3.59-18.32-5.65c-6.06-2.04-12.07-4.28-17.92-6.94
			c-5.85-2.64-11.45-5.86-16.89-9.22l-8.15-5.03l-8.26-4.79c-11.12-6.18-22.44-12.03-34.23-16.81c-2.9-1.3-5.88-2.41-8.85-3.55
			c-2.98-1.12-5.91-2.35-8.94-3.31l-9.03-3.06l-9.14-2.7c-24.44-7.03-49.72-11.06-75.14-12.2c-3.18-0.24-6.36-0.18-9.54-0.25
			c-3.18-0.05-6.37-0.13-9.55,0.01c-3.18,0.1-6.37,0.15-9.55,0.28l-9.53,0.65c-6.36,0.39-12.7,1.09-18.91,2.44
			C631.67,380.59,625.58,382.72,620.18,386.16z"/>
	</g>
	<g>
		<path d="M878.02,549.13c0.69,6.38,2.45,12.59,4.9,18.47c2.46,5.89,5.61,11.47,9.13,16.79c6.97,10.7,15.23,20.52,22.95,30.8
			c15.47,20.49,29.62,42.18,40.54,65.57c0.7,1.45,1.35,2.93,1.99,4.41l1.93,4.43c1.18,3,2.48,5.96,3.55,9l1.67,4.54l1.53,4.59
			c1.05,3.05,1.97,6.15,2.81,9.28c1.66,6.26,2.89,12.69,3.16,19.24c0.31,6.55-0.59,13.11-2.18,19.4c-1.59,6.3-3.81,12.38-6.24,18.34
			c-2.43,5.96-5.14,11.81-8.1,17.53c-6.02,11.37-12.97,22.25-20.96,32.29c3.73-5.22,7.25-10.58,10.55-16.06
			c3.28-5.5,6.32-11.13,9.1-16.89c2.79-5.75,5.37-11.6,7.65-17.56c2.28-5.96,4.35-12.01,5.76-18.18c1.41-6.17,2.14-12.47,1.8-18.74
			c-0.32-6.28-1.58-12.51-3.27-18.62c-0.87-3.05-1.76-6.11-2.82-9.11l-1.53-4.53l-1.67-4.48c-1.07-3-2.36-5.92-3.54-8.88l-1.93-4.38
			c-0.64-1.46-1.29-2.92-1.98-4.35l-2.04-4.33l-2.14-4.28c-1.4-2.87-2.95-5.66-4.44-8.48c-3.08-5.59-6.27-11.12-9.64-16.55
			c-6.65-10.91-13.95-21.43-21.41-31.83c-7.45-10.39-15.55-20.41-22.33-31.39c-3.37-5.49-6.35-11.25-8.63-17.28
			C879.9,561.88,878.39,555.54,878.02,549.13z"/>
	</g>
	<g>
		<path d="M372.57,402.69l7.64-2.06l7.65-1.99l15.31-3.97c10.22-2.59,20.45-5.15,30.69-7.64c10.23-2.54,20.5-4.93,30.75-7.4
			c10.26-2.42,20.55-4.81,30.95-6.82c10.41-1.97,20.94-3.49,31.57-4.16c5.31-0.31,10.65-0.36,15.97-0.2
			c5.32,0.18,10.62,0.64,15.88,1.28c10.53,1.24,20.92,3.14,31.3,4.92l15.57,2.8l7.78,1.4l7.77,1.48l-7.86-0.88l-7.85-0.95
			l-15.7-1.91c-10.46-1.32-20.9-2.8-31.34-3.75c-5.22-0.46-10.44-0.78-15.65-0.88c-5.21-0.06-10.43,0.07-15.63,0.47
			c-10.41,0.77-20.78,2.29-31.07,4.31c-10.31,1.92-20.56,4.28-30.85,6.58c-10.3,2.25-20.58,4.57-30.9,6.75
			c-10.3,2.23-20.62,4.38-30.95,6.51l-15.51,3.1l-7.76,1.55L372.57,402.69z"/>
	</g>
	<g>
		<path d="M347.67,503.5c7.21-2.21,14.87-2.52,22.26-2.93c3.7-0.24,7.38-0.4,10.98-0.9c3.59-0.46,7.13-1.14,10.46-2.34
			c3.35-1.13,6.47-2.81,9.48-4.82c3.04-1.95,5.9-4.27,8.89-6.51c5.92-4.54,11.93-8.97,18.19-13.09c-5.2,5.4-10.65,10.5-16.2,15.49
			c-2.75,2.52-5.63,4.97-8.74,7.23c-3.12,2.22-6.59,4.15-10.3,5.47c-3.72,1.25-7.55,1.97-11.36,2.32c-3.82,0.31-7.6,0.38-11.34,0.25
			C362.49,503.51,355.15,502.94,347.67,503.5z"/>
	</g>
	<g>
		<path d="M357.57,560.15c3.59-5.03,7.47-9.78,11.44-14.44c3.96-4.68,8.07-9.22,12.25-13.68c4.19-4.46,8.47-8.83,12.9-13.08
			c2.2-2.14,4.51-4.23,6.99-6.13c2.5-1.86,5.16-3.56,8.05-4.67c-4.93,3.73-8.79,8.32-12.77,12.94c-3.96,4.67-8.07,9.21-12.26,13.67
			c-4.2,4.45-8.48,8.83-12.9,13.07C366.87,552.1,362.36,556.26,357.57,560.15z"/>
	</g>
	<g>
		<path d="M408.32,617.65c-9.46,14.02-17.59,28.82-24.02,44.32c-3.2,7.75-6.05,15.64-8.38,23.69c-2.39,8.02-4.27,16.19-5.98,24.45
			c-1.8,8.24-3.5,16.55-5.75,24.77c-2.3,8.21-5.09,16.28-8.35,24.12c-6.5,15.71-14.48,30.66-22.8,45.37
			c6.84-15.47,14.02-30.77,19.89-46.51c1.44-3.95,2.83-7.9,4.12-11.89c1.27-3.99,2.45-8.01,3.48-12.06
			c2.1-8.11,3.76-16.36,5.5-24.64c1.79-8.26,3.72-16.58,6.28-24.71c2.58-8.12,5.55-16.12,9.14-23.83
			C388.51,645.24,397.53,630.68,408.32,617.65z"/>
	</g>
	<g>
		<path d="M338.3,846.9c5.61-5.69,11-11.48,16.04-17.54c1.23-1.55,2.45-3.08,3.71-4.59l3.58-4.69c1.13-1.61,2.31-3.18,3.46-4.77
			l3.29-4.89l3.19-4.95l3.02-5.06l2.9-5.14c0.89-1.75,1.82-3.49,2.76-5.22c3.58-7.02,6.78-14.26,9.8-21.66
			c-1.43,7.87-3.85,15.57-6.97,22.97c-0.8,1.84-1.62,3.68-2.47,5.5l-2.72,5.39l-2.99,5.25l-3.19,5.13l-3.45,4.95
			c-1.22,1.6-2.41,3.22-3.65,4.81l-3.88,4.62c-1.34,1.5-2.71,2.97-4.08,4.44C351.08,837.22,344.97,842.48,338.3,846.9z"/>
	</g>
	<g>
		<path d="M387.38,951.79c-2.49-15.04-4.45-30.19-5.33-45.47c-0.47-7.64-0.57-15.3-0.38-22.97c0.22-7.67,0.86-15.32,1.89-22.97
			c1.16-7.61,2.95-15.36,6.68-22.41c1.86-3.51,4.27-6.74,6.86-9.63c2.58-2.92,5.34-5.57,7.97-8.27
			c10.53-10.64,17.92-24.33,21.29-39.21c-1.71,15.17-8.51,29.91-19,41.34c-2.56,2.87-5.19,5.6-7.61,8.44
			c-2.43,2.84-4.52,5.82-6.15,9.08c-3.33,6.51-5.02,13.83-6.08,21.24c-1.08,7.44-1.73,14.98-2.07,22.53
			c-0.4,7.55-0.39,15.13-0.28,22.71C385.44,921.37,386.53,936.56,387.38,951.79z"/>
	</g>
	<g>
		<path d="M441.25,871.96c-0.75,13.83,0.01,27.63,2.4,41.11c1.23,6.73,2.78,13.41,4.82,19.93c1.99,6.53,4.4,12.93,7.21,19.16
			c2.77,6.26,5.92,12.4,8.87,18.69c2.9,6.31,5.71,12.76,7.59,19.56c1.99,6.78,2.8,13.83,3.03,20.78c0.18,6.97-0.18,13.9-0.72,20.8
			c-0.35-6.92-0.52-13.84-1.24-20.67c-0.69-6.83-1.89-13.57-4.06-20c-1.07-3.22-2.32-6.39-3.66-9.53c-1.36-3.13-2.83-6.23-4.36-9.31
			c-3.02-6.18-6.21-12.33-9.11-18.69c-2.81-6.41-5.27-12.99-7.18-19.72c-1.88-6.74-3.38-13.59-4.27-20.52
			C438.73,899.71,438.86,885.61,441.25,871.96z"/>
	</g>
	<g>
		<path d="M496.17,922.6c0.03,7.14,0.81,14.09,2.18,20.95c0.72,3.42,1.45,6.84,2.36,10.23c0.86,3.4,1.79,6.79,2.78,10.17l2.86,10.2
			c0.91,3.39,1.97,6.67,3.29,9.81c2.65,6.24,7.46,11.74,10.64,18.16c-2.3-2.73-4.71-5.29-7.08-7.96c-2.33-2.69-4.62-5.55-6.36-8.83
			c-1.78-3.23-2.97-6.7-4.11-10.08c-1.08-3.4-2.08-6.79-3.08-10.21c-0.93-3.44-1.85-6.89-2.6-10.39c-0.71-3.51-1.39-7.04-1.76-10.62
			C494.46,936.88,494.55,929.55,496.17,922.6z"/>
	</g>
	<g>
		<path d="M623.26,303.22c6.39-4.4,13.53-7.75,20.96-10.18c1.87-0.57,3.75-1.13,5.64-1.65l5.73-1.3c1.93-0.34,3.87-0.62,5.81-0.92
			l5.85-0.61l5.88-0.21c1.96,0.04,3.92,0.05,5.88,0.11l5.86,0.5c1.94,0.25,3.88,0.55,5.81,0.85c7.7,1.37,15.23,3.71,22.17,7.19
			c-7.51-1.91-15.03-3.33-22.6-4.1c-1.9-0.13-3.79-0.27-5.68-0.45l-5.68-0.2c-1.9,0.03-3.79,0.01-5.68,0.01l-5.67,0.29l-5.66,0.49
			c-1.88,0.25-3.75,0.54-5.63,0.77l-5.6,0.99c-1.84,0.44-3.7,0.84-5.56,1.23C637.68,297.84,630.43,300.29,623.26,303.22z"/>
	</g>
	<g>
		<path d="M612.84,337.22c-0.22-1.07-0.04-2.25,0.47-3.27c0.52-1.02,1.3-1.89,2.14-2.64c0.85-0.76,1.8-1.38,2.78-1.93
			c0.98-0.55,1.99-1.04,3.03-1.47c2.08-0.88,4.22-1.38,6.33-2.01c0.53-0.15,1.06-0.31,1.59-0.45l1.61-0.35l3.23-0.71
			c2.16-0.4,4.33-0.79,6.52-1.06c2.19-0.23,4.37-0.55,6.56-0.68l3.29-0.22c1.1-0.05,2.2-0.06,3.29-0.1c2.2-0.08,4.39-0.06,6.58-0.04
			c4.39,0.1,8.76,0.37,13.12,0.75c4.35,0.47,8.69,0.92,13,1.64c8.62,1.32,17.16,3.06,25.61,5.21c-8.71-0.51-17.35-1.38-25.98-2.11
			c-4.32-0.34-8.62-0.72-12.92-0.96l-6.45-0.35c-2.15-0.05-4.3-0.19-6.45-0.17c-2.15-0.05-4.3-0.1-6.44-0.05
			c-1.07,0.02-2.15,0.01-3.22,0.05l-3.21,0.13c-2.15,0.03-4.28,0.25-6.42,0.38c-1.07,0.05-2.13,0.23-3.2,0.32
			c-1.06,0.11-2.14,0.19-3.2,0.33c-2.11,0.34-4.25,0.56-6.35,0.99c-2.11,0.4-4.25,0.71-6.26,1.31c-2.03,0.56-4.03,1.31-5.78,2.43
			c-0.87,0.56-1.69,1.23-2.3,2.07C613.2,335.08,612.82,336.12,612.84,337.22z"/>
	</g>
	<g>
		<path d="M612.78,313.02c-10.3-2.18-20.61-3.98-30.97-5.26l-7.78-0.86l-7.79-0.67l-7.8-0.5l-7.81-0.28l-7.81-0.14l-7.82,0.08
			l-7.82,0.24c-2.6,0.17-5.21,0.31-7.81,0.43c-10.42,0.71-20.81,1.91-31.23,3.47c10.05-3.18,20.44-5.28,30.93-6.57
			c2.62-0.3,5.25-0.58,7.89-0.82l7.92-0.53l7.93-0.21l7.94,0.05l7.93,0.38c2.64,0.2,5.28,0.4,7.91,0.64l7.88,0.96
			c2.62,0.36,5.22,0.82,7.83,1.26C592.68,306.57,602.94,309.25,612.78,313.02z"/>
	</g>
	<g>
		<path d="M616.61,354.18c-1.39-1.1-2.83-2.07-4.37-2.83c-1.56-0.72-3.15-1.34-4.8-1.74c-3.29-0.86-6.7-1.17-10.13-1.29
			c-3.43-0.08-6.89-0.03-10.4,0.09c-3.51,0.1-7.02,0.13-10.53,0.16c-7.02,0.04-14.03-0.09-21.05-0.35
			c-7.02-0.26-14.04-0.67-21.07-1.47c7.01-0.86,14.03-1.33,21.05-1.65c7.02-0.32,14.04-0.51,21.06-0.53c3.51,0,7.02,0,10.53,0.07
			c3.5,0.09,7.07,0.12,10.64,0.58c3.56,0.4,7.15,1.17,10.52,2.54c1.67,0.72,3.28,1.6,4.74,2.65
			C614.26,351.49,615.54,352.77,616.61,354.18z"/>
	</g>
	<g>
		<path d="M778.42,322.75c5.4-0.68,10.93,0.86,15.82,3.26c4.92,2.43,9.37,5.65,13.61,9.01c4.32,3.27,8.39,6.85,12.47,10.42
			c3.99,3.67,7.92,7.4,11.67,11.31c3.76,3.91,7.37,7.95,10.86,12.1c1.72,2.1,3.44,4.18,5.09,6.34c1.69,2.11,3.28,4.31,4.87,6.5
			c6.35,8.77,12.01,18.03,16.88,27.66c-5.95-9.01-12.11-17.82-18.76-26.26c-3.34-4.2-6.71-8.37-10.25-12.4
			c-1.76-2.02-3.54-4.02-5.34-6.01c-1.83-1.95-3.63-3.94-5.52-5.84c-7.4-7.75-15.26-15.06-23.45-22c-4.08-3.48-8.22-6.87-12.83-9.52
			C788.99,324.63,783.85,322.75,778.42,322.75z"/>
	</g>
	<g>
		<path d="M396.21,344.57c5.42-1.27,10.91-2.16,16.42-2.85c2.75-0.37,5.52-0.61,8.28-0.89c2.77-0.23,5.54-0.41,8.31-0.58
			c2.77-0.11,5.55-0.22,8.32-0.28c2.78-0.01,5.55-0.05,8.33,0.03c5.55,0.12,11.1,0.44,16.63,1.16c-5.54,0.53-11.07,0.87-16.59,1.18
			l-16.54,0.9l-16.55,0.8C407.31,344.29,401.78,344.53,396.21,344.57z"/>
	</g>
</g>
</svg>
